<svg height="1024" node-id="1" sillyvg="true" template-height="1024" template-width="1024" version="1.1" viewBox="0 0 1024 1024" width="1024" xmlns="http://www.w3.org/2000/svg" xmlns:xlink="http://www.w3.org/1999/xlink"><defs node-id="153"><linearGradient gradientUnits="objectBoundingBox" id="linearGradient-1" node-id="5" spreadMethod="pad" x1="0.5" x2="0.5" y1="1" y2="-0.41476682"><stop offset="0" stop-color="#ffdc4d" stop-opacity="0"/><stop offset="1" stop-color="#f4b538"/></linearGradient><linearGradient gradientUnits="objectBoundingBox" id="linearGradient-2" node-id="8" spreadMethod="pad" x1="0.5" x2="0.5" y1="1" y2="-0.41476682"><stop offset="0" stop-color="#ffdc4d" stop-opacity="0"/><stop offset="1" stop-color="#f4b538"/></linearGradient><linearGradient gradientUnits="objectBoundingBox" id="linearGradient-3" node-id="11" spreadMethod="pad" x1="0.89443105" x2="0" y1="0.30021656" y2="1.1068289"><stop offset="0" stop-color="#f1bc01"/><stop offset="1" stop-color="#ffdc4d"/></linearGradient><linearGradient gradientUnits="objectBoundingBox" id="linearGradient-4" node-id="14" spreadMethod="pad" x1="-0.14764221" x2="1.0993861" y1="0.6617186" y2="0.5"><stop offset="0" stop-color="#ffdc4d"/><stop offset="1" stop-color="#f1bc01"/></linearGradient><linearGradient gradientUnits="objectBoundingBox" id="linearGradient-5" node-id="17" spreadMethod="pad" x1="0.89443105" x2="0" y1="0.4461855" y2="0.66345793"><stop offset="0" stop-color="#f1bc01"/><stop offset="1" stop-color="#ffdc4d"/></linearGradient><linearGradient gradientUnits="objectBoundingBox" id="linearGradient-6" node-id="20" spreadMethod="pad" x1="-0.14764221" x2="1.0993861" y1="0.6617477" y2="0.5"><stop offset="0" stop-color="#ffdc4d"/><stop offset="1" stop-color="#f1bc01"/></linearGradient><linearGradient gradientUnits="objectBoundingBox" id="linearGradient-7" node-id="23" spreadMethod="pad" x1="0.89443105" x2="0" y1="0.4462212" y2="0.66334945"><stop offset="0" stop-color="#f1bc01"/><stop offset="1" stop-color="#ffdc4d"/></linearGradient><linearGradient gradientUnits="objectBoundingBox" id="linearGradient-8" node-id="26" spreadMethod="pad" x1="0.89443105" x2="0" y1="0.48189855" y2="0.554982"><stop offset="0" stop-color="#f1bc01"/><stop offset="1" stop-color="#ffdc4d"/></linearGradient><linearGradient gradientUnits="objectBoundingBox" id="linearGradient-9" node-id="29" spreadMethod="pad" x1="-0.52288675" x2="0.66610736" y1="0.5116955" y2="0.4803846"><stop offset="0" stop-color="#ffdc4d"/><stop offset="1" stop-color="#f1bc01"/></linearGradient><linearGradient gradientUnits="objectBoundingBox" id="linearGradient-10" node-id="32" spreadMethod="pad" x1="0" x2="1.3517264" y1="0.5" y2="0.5"><stop offset="0" stop-color="#ffdc4d"/><stop offset="1" stop-color="#f1bc01"/></linearGradient><linearGradient gradientUnits="objectBoundingBox" id="linearGradient-11" node-id="35" spreadMethod="pad" x1="0" x2="1.3517264" y1="0.5" y2="0.5"><stop offset="0" stop-color="#ffdc4d"/><stop offset="1" stop-color="#f1bc01"/></linearGradient><linearGradient gradientUnits="objectBoundingBox" id="linearGradient-12" node-id="38" spreadMethod="pad" x1="0" x2="0.744962" y1="0.5" y2="0.52038217"><stop offset="0" stop-color="#ffdc4d"/><stop offset="1" stop-color="#f1bc01"/></linearGradient><linearGradient gradientUnits="objectBoundingBox" id="linearGradient-13" node-id="41" spreadMethod="pad" x1="0.36901027" x2="0.5991385" y1="0.2637945" y2="0.84523773"><stop offset="0" stop-color="#ffdc4d"/><stop offset="1" stop-color="#f1bc01"/></linearGradient><linearGradient gradientUnits="objectBoundingBox" id="linearGradient-14" node-id="44" spreadMethod="pad" x1="-0.41948968" x2="0.5911355" y1="0.5689796" y2="0.48266125"><stop offset="0" stop-color="#ffdc4d"/><stop offset="1" stop-color="#f1bc01"/></linearGradient><linearGradient gradientUnits="objectBoundingBox" id="linearGradient-15" node-id="47" spreadMethod="pad" x1="0" x2="1.2624928" y1="1" y2="1"><stop offset="0" stop-color="#ffdc4d"/><stop offset="1" stop-color="#f1bc01"/></linearGradient><linearGradient gradientUnits="objectBoundingBox" id="linearGradient1" node-id="245" spreadMethod="pad" x1="0.13724977" x2="1" y1="-0.028050492" y2="-0.028050492"><stop offset="0" stop-color="#1d181c"/><stop offset="0.3" stop-color="#2c2422"/><stop offset="0.5" stop-color="#42352c"/><stop offset="0.7" stop-color="#57352c"/><stop offset="1" stop-color="#923629"/></linearGradient><linearGradient gradientUnits="objectBoundingBox" id="linearGradient2" node-id="258" spreadMethod="pad" x1="0.5" x2="0.5" y1="0.12924309" y2="1"><stop offset="0" stop-color="#ffcda5"/><stop offset="1" stop-color="#ffe8d1"/></linearGradient><linearGradient gradientUnits="objectBoundingBox" id="linearGradient3" node-id="265" spreadMethod="pad" x1="0.4141964" x2="0.93228686" y1="0" y2="1"><stop offset="0" stop-color="#fff2df"/><stop offset="1" stop-color="#fee0bc"/></linearGradient><linearGradient gradientUnits="objectBoundingBox" id="linearGradient4" node-id="272" spreadMethod="pad" x1="0.641945" x2="0.16594565" y1="1.1840205" y2="-0.1022284"><stop offset="0" stop-color="#41b093"/><stop offset="1" stop-color="#184657"/></linearGradient><linearGradient gradientUnits="objectBoundingBox" id="linearGradient5" node-id="279" spreadMethod="pad" x1="0.6762706" x2="0.28961724" y1="0.79376185" y2="0.5"><stop offset="0" stop-color="#41b093"/><stop offset="1" stop-color="#184657"/></linearGradient><linearGradient gradientUnits="objectBoundingBox" id="linearGradient6" node-id="286" spreadMethod="pad" x1="0.6641792" x2="0.113619626" y1="1.1840205" y2="-0.1022284"><stop offset="0" stop-color="#41b093"/><stop offset="1" stop-color="#184657"/></linearGradient><linearGradient gradientUnits="objectBoundingBox" id="linearGradient-16" node-id="50" spreadMethod="pad" x1="0.13724977" x2="1" y1="-0.028050492" y2="-0.028050492"><stop offset="0" stop-color="#1d181c"/><stop offset="0.3" stop-color="#2c2422"/><stop offset="0.5" stop-color="#42352c"/><stop offset="0.7" stop-color="#57352c"/><stop offset="1" stop-color="#923629"/></linearGradient><linearGradient gradientUnits="objectBoundingBox" id="linearGradient-17" node-id="56" spreadMethod="pad" x1="0.5" x2="0.5" y1="0.12924309" y2="1"><stop offset="0" stop-color="#ffcda5"/><stop offset="1" stop-color="#ffe8d1"/></linearGradient><linearGradient gradientUnits="objectBoundingBox" id="linearGradient-18" node-id="59" spreadMethod="pad" x1="0.4141964" x2="0.93228686" y1="0" y2="1"><stop offset="0" stop-color="#fff2df"/><stop offset="1" stop-color="#fee0bc"/></linearGradient><linearGradient gradientUnits="objectBoundingBox" id="linearGradient-19" node-id="62" spreadMethod="pad" x1="0.641945" x2="0.16594565" y1="1.1840205" y2="-0.1022284"><stop offset="0" stop-color="#41b093"/><stop offset="1" stop-color="#184657"/></linearGradient><linearGradient gradientUnits="objectBoundingBox" id="linearGradient-20" node-id="65" spreadMethod="pad" x1="0.6762706" x2="0.28961724" y1="0.79376185" y2="0.5"><stop offset="0" stop-color="#41b093"/><stop offset="1" stop-color="#184657"/></linearGradient><linearGradient gradientUnits="objectBoundingBox" id="linearGradient-21" node-id="68" spreadMethod="pad" x1="0.6641792" x2="0.113619626" y1="1.1840205" y2="-0.1022284"><stop offset="0" stop-color="#41b093"/><stop offset="1" stop-color="#184657"/></linearGradient><linearGradient gradientUnits="objectBoundingBox" id="linearGradient-22" node-id="71" spreadMethod="pad" x1="0.45251164" x2="0.9923633" y1="0.9971597" y2="0.9971597"><stop offset="0" stop-color="#ffdc4d"/><stop offset="1" stop-color="#f4b538"/></linearGradient><linearGradient gradientUnits="objectBoundingBox" id="linearGradient-23" node-id="74" spreadMethod="pad" x1="0.45251164" x2="0.9923633" y1="0.9971597" y2="0.9971597"><stop offset="0" stop-color="#ffdc4d"/><stop offset="1" stop-color="#f4b538"/></linearGradient><linearGradient gradientUnits="objectBoundingBox" id="linearGradient-24" node-id="77" spreadMethod="pad" x1="0.45251164" x2="0.9923633" y1="0.9971597" y2="0.9971597"><stop offset="0" stop-color="#ffdc4d"/><stop offset="1" stop-color="#f4b538"/></linearGradient><linearGradient gradientUnits="objectBoundingBox" id="linearGradient-25" node-id="80" spreadMethod="pad" x1="0.45251164" x2="0.9923633" y1="0.9971597" y2="0.9971597"><stop offset="0" stop-color="#ffdc4d"/><stop offset="1" stop-color="#f4b538"/></linearGradient><linearGradient gradientUnits="objectBoundingBox" id="linearGradient-26" node-id="83" spreadMethod="pad" x1="0.45251164" x2="0.9923633" y1="0.9971597" y2="0.9971597"><stop offset="0" stop-color="#ffdc4d"/><stop offset="1" stop-color="#f4b538"/></linearGradient></defs><path d="M 0.00 0.00 L 1024.00 0.00 L 1024.00 1024.00 L 0.00 1024.00 Z" fill="none" id="矩形" node-id="87" stroke="none" target-height="1024" target-width="1024" target-x="0" target-y="0"/><g node-id="364"><path d="M 47.54 659.54 C 39.48 624.80 -12.96 398.53 135.32 367.41 C 283.60 336.30 371.20 372.54 436.35 309.19 C 501.51 245.84 517.75 256.23 571.27 260.42 C 624.78 264.61 686.81 218.89 707.65 205.15 C 728.49 191.41 916.66 103.04 964.77 367.41 C 972.37 481.71 978.69 605.72 925.46 652.69 C 872.23 699.66 926.43 741.84 964.77 746.52 C 1003.11 751.21 946.85 831.47 858.30 866.51 C 799.42 892.92 418.60 968.64 190.54 890.80 C 80.42 843.65 55.59 694.29 47.54 659.54 Z" fill="#f1bc01" fill-opacity="0.05" fill-rule="evenodd" group-id="1" id="路径-58" node-id="88" stroke="none" target-height="865.5997" target-width="1016.0705" target-x="-12.964273" target-y="103.03797"/></g><path d="M 908.00 227.38 C 908.00 240.50 895.48 251.00 879.66 251.00 L 792.00 251.00 C 776.18 249.95 763.00 239.98 763.00 226.32 C 763.00 217.40 768.93 209.53 777.50 205.33 C 776.84 203.75 776.18 202.18 776.18 200.60 C 776.18 191.68 784.75 183.80 795.95 183.80 C 800.57 183.80 804.52 185.38 807.82 187.47 C 815.73 175.40 830.23 167.00 847.36 167.00 C 871.09 167.00 890.20 183.28 890.20 203.22 L 890.20 205.33 C 900.75 209.00 908.00 217.40 908.00 227.38 Z" fill="url(#linearGradient-1)" fill-rule="evenodd" id="云" node-id="89" stroke="none" target-height="84" target-width="145" target-x="763" target-y="167"/><path d="M 248.50 301.00 C 270.80 301.00 289.79 315.17 296.95 335.00 L 328.50 335.00 C 338.16 335.00 346.00 342.84 346.00 352.50 L 346.00 388.50 C 346.00 398.16 338.16 406.00 328.50 406.00 L 169.50 406.00 C 159.84 406.00 152.00 398.16 152.00 388.50 L 152.00 378.72 C 148.19 372.55 146.00 365.28 146.00 357.50 C 146.00 335.13 164.13 317.00 186.50 317.00 C 193.86 317.00 200.76 318.96 206.71 322.40 C 216.06 309.44 231.30 301.00 248.50 301.00 Z" fill="url(#linearGradient-2)" fill-rule="evenodd" id="云" node-id="90" stroke="none" target-height="105" target-width="200" target-x="146" target-y="301"/><g node-id="365"><path d="M 900.00 405.98 C 833.77 413.80 782.15 403.40 745.14 374.78 C 715.86 351.12 724.71 304.00 752.57 304.00 C 780.43 304.00 797.33 327.24 797.33 363.34 C 797.33 399.44 779.13 441.44 752.57 460.00" fill="none" group-id="2" id="路径-20" node-id="92" stroke="url(#linearGradient-3)" stroke-linecap="round" stroke-width="2" target-height="156" target-width="184.13959" target-x="715.8604" target-y="304"/><g node-id="372"><path d="M 747.49 440.42 C 736.01 431.35 725.29 434.03 715.32 448.45 C 710.14 456.47 708.21 467.71 698.21 470.21 C 732.31 473.33 748.74 463.40 747.49 440.42 Z" fill="url(#linearGradient-4)" fill-rule="evenodd" group-id="2,9" id="路径-18" node-id="93" stroke="none" target-height="41.973785" target-width="50.531128" target-x="698.2078" target-y="431.35428"/></g><g node-id="373"><path d="M 757.23 428.00 C 755.58 435.08 743.73 444.70 721.69 456.86" fill="none" group-id="2,10" id="路径-19" node-id="94" stroke="url(#linearGradient-5)" stroke-linecap="round" stroke-width="2" target-height="28.858246" target-width="35.535706" target-x="721.69434" target-y="427.99997"/></g><g node-id="374"><path d="M 204.77 695.60 C 196.23 683.72 185.19 683.33 171.64 694.44 C 164.45 700.72 159.50 711.00 149.20 710.64 C 181.12 723.04 199.65 718.03 204.77 695.60 Z" fill="url(#linearGradient-6)" fill-rule="evenodd" group-id="2,11" id="路径-18备份" node-id="95" stroke="none" target-height="39.713867" target-width="55.572388" target-x="149.1968" target-y="683.3297"/></g><g node-id="375"><path d="M 219.11 687.45 C 215.57 693.79 201.53 699.77 177.00 705.38" fill="none" group-id="2,12" id="路径-19备份" node-id="96" stroke="url(#linearGradient-7)" stroke-linecap="round" stroke-width="2" target-height="17.935669" target-width="42.105667" target-x="177" target-y="687.4468"/></g><path d="M 233.00 646.00 C 204.94 658.67 181.61 665.00 163.00 665.00" fill="none" group-id="2" id="路径-22" node-id="97" stroke="url(#linearGradient-8)" stroke-linecap="round" stroke-width="2" target-height="19" target-width="70" target-x="163" target-y="646"/></g><g node-id="366"><path d="M 448.00 859.11 L 572.74 834.00 L 788.00 846.19 L 670.53 886.00 Z" fill="url(#linearGradient-9)" fill-rule="evenodd" group-id="3" id="路径-68" node-id="99" stroke="none" target-height="52" target-width="340" target-x="448" target-y="834"/><path d="M 574.00 676.38 L 574.00 833.64 L 713.00 842.00 L 712.75 665.00 Z" fill="url(#linearGradient-10)" fill-rule="evenodd" group-id="3" id="路径-69" node-id="100" stroke="none" target-height="177" target-width="139" target-x="574" target-y="665"/><path d="M 448.00 643.00 L 448.00 859.00 L 574.00 832.93 L 574.00 676.50 Z" fill="url(#linearGradient-11)" fill-rule="evenodd" group-id="3" id="路径-70" node-id="101" stroke="none" target-height="216" target-width="126" target-x="448" target-y="643"/><path d="M 448.00 643.76 L 669.32 622.00 L 788.00 659.92 L 573.66 677.00 Z" fill="url(#linearGradient-12)" fill-rule="evenodd" group-id="3" id="路径-71" node-id="102" stroke="none" target-height="55" target-width="340" target-x="448" target-y="622"/><path d="M 672.87 623.00 L 670.00 888.00 L 788.00 846.54 L 788.00 657.76 Z" fill="url(#linearGradient-13)" fill-rule="evenodd" group-id="3" id="路径-72" node-id="103" stroke="none" target-height="265" target-width="118" target-x="670" target-y="623"/><path d="M 449.00 643.00 L 462.98 589.19 L 694.00 552.00 L 673.34 623.34 Z" fill="url(#linearGradient-14)" fill-rule="evenodd" group-id="3" id="路径-73" node-id="104" stroke="none" target-height="91" target-width="245" target-x="449" target-y="552"/><path d="M 448.43 860.00 L 425.00 885.79 L 636.80 924.00 L 671.00 885.79 Z" fill="url(#linearGradient-15)" fill-rule="evenodd" group-id="3" id="路径-74" node-id="105" stroke="none" target-height="64" target-width="246" target-x="425" target-y="860"/></g><g node-id="367"><g node-id="376"><path d="M 285.00 904.50 C 285.00 918.03 319.92 929.00 363.00 929.00 C 406.08 929.00 441.00 918.03 441.00 904.50 C 441.00 890.97 406.08 880.00 363.00 880.00 C 319.92 880.00 285.00 890.97 285.00 904.50 Z" fill="#f1bc01" fill-opacity="0.3" fill-rule="evenodd" group-id="4,13" id="椭圆形" node-id="107" stroke="none" target-height="49" target-width="156" target-x="285" target-y="880"/></g><path d="M 378.03 889.54 L 379.10 896.46 C 383.47 896.59 388.22 897.86 393.35 900.26 C 396.66 902.35 396.80 903.30 396.91 905.10 C 396.98 906.30 387.65 906.30 368.91 905.10 L 368.91 887.00 L 378.03 889.54 Z" fill="#333333" fill-rule="nonzero" group-id="4" id="路径-52" node-id="108" stroke="none" target-height="19.30017" target-width="28.070496" target-x="368.91052" target-y="887"/><path d="M 337.03 889.54 L 338.10 896.46 C 342.47 896.59 347.22 897.86 352.35 900.26 C 355.66 902.35 355.80 903.30 355.91 905.10 C 355.98 906.30 346.65 906.30 327.91 905.10 L 327.91 887.00 L 337.03 889.54 Z" fill="#333333" fill-rule="nonzero" group-id="4" id="路径-52备份-2" node-id="109" stroke="none" target-height="19.30017" target-width="28.070496" target-x="327.91052" target-y="887"/><path d="M 346.63 746.00 C 339.96 746.03 334.63 746.83 334.63 746.83 C 334.63 746.83 336.49 770.79 335.01 796.92 C 332.57 839.74 326.29 893.31 326.29 893.31 L 339.55 893.31 C 339.55 893.31 361.34 820.93 361.11 773.71 C 369.00 813.49 367.99 894.00 367.99 894.00 L 381.94 892.61 C 381.94 892.61 386.86 843.86 388.08 804.68 C 389.06 772.93 386.38 749.17 386.38 749.17 C 379.56 748.25 372.65 748.17 365.80 748.93 C 365.78 748.93 365.77 748.93 365.75 748.94 C 362.73 747.94 358.94 746.92 355.08 746.45 C 352.45 746.13 349.78 746.01 347.27 746.00 L 346.63 746.00 Z" fill="url(#linearGradient1)" fill-rule="nonzero" group-id="4" id="腿" node-id="110" stroke="none" target-height="148" target-width="62.765503" target-x="326.292" target-y="746"/><g node-id="377"><path d="M 346.00 635.00 L 365.00 635.00 L 365.00 654.00 L 346.00 654.00 Z" fill="url(#linearGradient2)" fill-rule="evenodd" group-id="4,14" id="矩形" node-id="112" stroke="none" target-height="19" target-width="19" target-x="346" target-y="635"/><path d="M 364.27 641.18 C 382.56 637.24 383.34 624.80 381.12 606.72 C 376.41 591.44 361.25 582.08 347.24 585.82 C 333.24 589.57 325.70 604.99 330.40 620.28 C 335.10 635.56 350.27 644.92 364.27 641.18 Z" fill="url(#linearGradient3)" fill-rule="evenodd" group-id="4,14" id="椭圆形" node-id="113" stroke="none" target-height="62.836914" target-width="57.647705" target-x="325.69592" target-y="582.08154"/><path d="M 345.63 638.00 C 333.43 634.82 325.63 629.65 322.22 622.48 C 317.11 611.73 318.46 598.90 323.60 593.33 C 323.07 592.18 321.90 590.86 320.25 589.94 C 322.26 589.03 325.68 588.63 326.51 589.23 C 326.36 587.99 327.35 583.65 328.71 582.32 C 328.61 583.26 328.80 584.65 329.27 586.47 C 330.90 583.03 336.02 579.78 344.62 576.72 C 348.51 576.23 352.65 575.23 360.38 577.03 C 362.95 577.69 366.24 577.97 375.83 583.93 C 374.64 583.96 373.88 584.05 373.53 584.21 C 378.82 587.59 382.97 591.29 386.00 595.29 C 385.00 595.79 384.19 596.02 383.56 595.97 L 385.39 596.90 L 380.16 596.90 L 383.56 603.37 C 378.92 598.83 374.40 596.14 370.02 595.29 C 367.17 594.24 366.34 593.91 366.44 596.90 C 366.53 599.89 364.10 605.74 363.16 608.63 C 361.83 611.47 361.76 612.69 360.09 615.63 C 358.45 619.37 356.45 623.15 354.09 626.99 L 352.75 622.48 C 349.55 619.94 347.18 619.94 345.63 622.48 C 343.32 626.29 343.24 631.88 351.58 633.27 C 348.69 633.97 346.71 635.54 345.63 638.00 Z" fill="#000000" fill-rule="evenodd" group-id="4,14" id="路径-66" node-id="114" stroke="none" target-height="62.766357" target-width="68.88852" target-x="317.11148" target-y="575.23364"/></g><g node-id="378"><path d="M 366.78 646.00 C 366.78 646.00 375.48 649.85 379.75 656.95 C 386.78 668.67 390.81 688.68 390.81 688.68 C 390.81 688.68 391.13 694.77 395.76 703.41 C 400.80 712.81 402.62 713.98 402.62 713.98 C 402.62 713.98 409.82 718.85 411.78 719.27 C 414.16 719.79 419.78 722.29 419.78 722.29 L 415.97 734.00 C 415.97 734.00 400.28 732.55 389.28 727.58 C 381.06 723.86 377.84 713.98 377.84 713.98 L 366.78 646.00 Z" fill="url(#linearGradient4)" fill-rule="nonzero" group-id="4,15" id="胳膊" node-id="116" stroke="none" target-height="88" target-width="53" target-x="366.78217" target-y="646"/><path d="M 362.91 654.20 L 346.34 645.00 C 346.34 645.00 344.80 646.43 344.18 647.11 C 342.95 647.99 341.86 648.84 341.86 648.84 C 341.86 648.84 337.68 651.26 335.36 655.20 C 332.58 659.92 332.71 676.00 332.71 676.00 C 332.71 676.00 333.18 688.02 332.33 700.58 C 330.86 722.28 330.20 747.97 330.20 747.97 C 330.20 747.97 347.42 748.90 360.41 748.99 C 374.08 749.09 387.20 748.23 387.20 748.23 L 378.88 671.46 C 378.88 671.46 377.62 658.35 372.82 650.66 C 370.71 647.27 365.34 645.86 365.34 645.86 L 362.91 654.20 Z" fill="url(#linearGradient5)" fill-rule="nonzero" group-id="4,15" id="衣服" node-id="117" stroke="none" target-height="104.08923" target-width="57" target-x="330.19946" target-y="645"/><path d="M 340.78 649.00 C 340.78 649.00 333.09 653.93 330.47 658.48 C 326.52 665.36 324.74 696.41 324.74 696.41 C 324.74 696.41 324.07 701.68 326.65 705.90 C 329.41 710.40 354.54 725.62 354.54 725.62 L 375.16 737.00 L 381.66 722.59 L 346.52 696.79 C 346.52 696.79 344.90 695.52 344.60 693.76 C 344.33 692.11 347.66 672.90 347.66 672.90 C 347.66 672.90 349.01 665.22 346.90 659.62 C 345.02 654.63 340.78 649.00 340.78 649.00 Z" fill="url(#linearGradient6)" fill-rule="nonzero" group-id="4,15" id="胳膊-2" node-id="118" stroke="none" target-height="88" target-width="57.594055" target-x="324.0669" target-y="649"/><path d="M 425.15 704.00 L 386.08 704.00 C 385.58 704.00 385.10 704.20 384.74 704.54 C 384.39 704.89 384.19 705.37 384.19 705.86 L 383.05 731.14 C 383.05 731.63 383.25 732.11 383.61 732.46 C 383.96 732.80 384.44 733.00 384.95 733.00 L 422.50 733.00 C 423.00 733.00 423.49 732.80 423.84 732.46 C 424.20 732.11 424.40 731.63 424.40 731.14 L 427.05 705.86 C 427.05 705.37 426.85 704.89 426.50 704.54 C 426.14 704.20 425.66 704.00 425.15 704.00 L 425.15 704.00 Z" fill="#483029" fill-rule="evenodd" group-id="4,15" id="iPad" node-id="119" stroke="none" target-height="29" target-width="44" target-x="383.0503" target-y="704"/><path d="M 381.43 723.00 L 392.43 723.36 C 392.43 723.36 393.42 723.31 393.46 725.14 C 393.44 725.60 393.18 726.02 392.77 726.21 L 390.03 727.29 C 391.38 727.66 392.75 727.89 394.14 728.00 C 395.97 728.10 397.79 728.10 399.62 728.00 C 399.62 728.00 400.81 727.87 400.65 729.78 C 400.47 731.80 399.96 734.78 399.96 734.78 C 399.96 734.78 399.73 736.82 397.22 737.28 C 394.00 737.88 386.27 738.00 386.27 738.00 C 384.32 738.02 382.38 737.90 380.45 737.64 C 378.87 737.39 375.66 736.21 375.66 736.21 C 375.66 736.21 377.04 732.65 378.38 729.22 C 379.24 727.07 380.26 724.99 381.43 723.00 Z M 424.51 723.55 L 415.16 723.00 C 415.16 723.00 414.33 722.88 414.17 724.55 C 414.14 724.95 414.33 725.34 414.67 725.58 L 416.92 726.77 C 415.76 727.00 414.57 727.11 413.39 727.09 C 411.83 727.04 410.28 726.90 408.74 726.66 C 408.74 726.66 407.74 726.45 407.75 728.20 C 407.75 730.05 407.98 732.81 407.98 732.81 C 408.08 734.00 408.94 735.00 410.12 735.30 C 412.81 736.10 419.36 736.82 419.36 736.82 C 421.00 737.00 422.66 737.04 424.32 736.96 C 424.92 736.91 425.73 737.04 426.30 736.66 C 426.79 736.26 427.18 735.76 427.42 735.18 C 427.87 732.89 427.86 730.53 427.38 728.25 C 427.15 727.19 426.85 726.14 426.47 725.12 C 426.20 724.25 425.43 723.63 424.51 723.55 L 424.51 723.55 Z" fill="#fee0bc" fill-rule="evenodd" group-id="4,15" id="手" node-id="120" stroke="none" target-height="15.141602" target-width="52.20868" target-x="375.66125" target-y="722.88116"/></g></g><g node-id="368"><g node-id="379"><path d="M 285.00 904.50 C 285.00 918.03 319.92 929.00 363.00 929.00 C 406.08 929.00 441.00 918.03 441.00 904.50 C 441.00 890.97 406.08 880.00 363.00 880.00 C 319.92 880.00 285.00 890.97 285.00 904.50 Z" fill="#f1bc01" fill-opacity="0.3" fill-rule="evenodd" group-id="5,16" id="椭圆形" node-id="122" stroke="none" target-height="49" target-width="156" target-x="285" target-y="880"/></g><path d="M 378.03 889.54 L 379.10 896.46 C 383.47 896.59 388.22 897.86 393.35 900.26 C 396.66 902.35 396.80 903.30 396.91 905.10 C 396.98 906.30 387.65 906.30 368.91 905.10 L 368.91 887.00 L 378.03 889.54 Z" fill="#333333" fill-rule="nonzero" group-id="5" id="路径-52" node-id="123" stroke="none" target-height="19.30017" target-width="28.070496" target-x="368.91052" target-y="887"/><path d="M 337.03 889.54 L 338.10 896.46 C 342.47 896.59 347.22 897.86 352.35 900.26 C 355.66 902.35 355.80 903.30 355.91 905.10 C 355.98 906.30 346.65 906.30 327.91 905.10 L 327.91 887.00 L 337.03 889.54 Z" fill="#333333" fill-rule="nonzero" group-id="5" id="路径-52备份-2" node-id="124" stroke="none" target-height="19.30017" target-width="28.070496" target-x="327.91052" target-y="887"/><path d="M 346.63 746.00 C 339.96 746.03 334.63 746.83 334.63 746.83 C 334.63 746.83 336.49 770.79 335.01 796.92 C 332.57 839.74 326.29 893.31 326.29 893.31 L 339.55 893.31 C 339.55 893.31 361.34 820.93 361.11 773.71 C 369.00 813.49 367.99 894.00 367.99 894.00 L 381.94 892.61 C 381.94 892.61 386.86 843.86 388.08 804.68 C 389.06 772.93 386.38 749.17 386.38 749.17 C 379.56 748.25 372.65 748.17 365.80 748.93 C 365.78 748.93 365.77 748.93 365.75 748.94 C 362.73 747.94 358.94 746.92 355.08 746.45 C 352.45 746.13 349.78 746.01 347.27 746.00 L 346.63 746.00 Z" fill="url(#linearGradient-16)" fill-rule="nonzero" group-id="5" id="腿" node-id="125" stroke="none" target-height="148" target-width="62.765503" target-x="326.292" target-y="746"/><g node-id="380"><path d="M 346.00 635.00 L 365.00 635.00 L 365.00 654.00 L 346.00 654.00 Z" fill="url(#linearGradient-17)" fill-rule="evenodd" group-id="5,17" id="矩形" node-id="127" stroke="none" target-height="19" target-width="19" target-x="346" target-y="635"/><path d="M 364.27 641.18 C 382.56 637.24 383.34 624.80 381.12 606.72 C 376.41 591.44 361.25 582.08 347.24 585.82 C 333.24 589.57 325.70 604.99 330.40 620.28 C 335.10 635.56 350.27 644.92 364.27 641.18 Z" fill="url(#linearGradient-18)" fill-rule="evenodd" group-id="5,17" id="椭圆形" node-id="128" stroke="none" target-height="62.836914" target-width="57.647705" target-x="325.69592" target-y="582.08154"/><path d="M 345.63 638.00 C 333.43 634.82 325.63 629.65 322.22 622.48 C 317.11 611.73 318.46 598.90 323.60 593.33 C 323.07 592.18 321.90 590.86 320.25 589.94 C 322.26 589.03 325.68 588.63 326.51 589.23 C 326.36 587.99 327.35 583.65 328.71 582.32 C 328.61 583.26 328.80 584.65 329.27 586.47 C 330.90 583.03 336.02 579.78 344.62 576.72 C 348.51 576.23 352.65 575.23 360.38 577.03 C 362.95 577.69 366.24 577.97 375.83 583.93 C 374.64 583.96 373.88 584.05 373.53 584.21 C 378.82 587.59 382.97 591.29 386.00 595.29 C 385.00 595.79 384.19 596.02 383.56 595.97 L 385.39 596.90 L 380.16 596.90 L 383.56 603.37 C 378.92 598.83 374.40 596.14 370.02 595.29 C 367.17 594.24 366.34 593.91 366.44 596.90 C 366.53 599.89 364.10 605.74 363.16 608.63 C 361.83 611.47 361.76 612.69 360.09 615.63 C 358.45 619.37 356.45 623.15 354.09 626.99 L 352.75 622.48 C 349.55 619.94 347.18 619.94 345.63 622.48 C 343.32 626.29 343.24 631.88 351.58 633.27 C 348.69 633.97 346.71 635.54 345.63 638.00 Z" fill="#000000" fill-rule="evenodd" group-id="5,17" id="路径-66" node-id="129" stroke="none" target-height="62.766357" target-width="68.88852" target-x="317.11148" target-y="575.23364"/></g><g node-id="381"><path d="M 366.78 646.00 C 366.78 646.00 375.48 649.85 379.75 656.95 C 386.78 668.67 390.81 688.68 390.81 688.68 C 390.81 688.68 391.13 694.77 395.76 703.41 C 400.80 712.81 402.62 713.98 402.62 713.98 C 402.62 713.98 409.82 718.85 411.78 719.27 C 414.16 719.79 419.78 722.29 419.78 722.29 L 415.97 734.00 C 415.97 734.00 400.28 732.55 389.28 727.58 C 381.06 723.86 377.84 713.98 377.84 713.98 L 366.78 646.00 Z" fill="url(#linearGradient-19)" fill-rule="nonzero" group-id="5,18" id="胳膊" node-id="131" stroke="none" target-height="88" target-width="53" target-x="366.78217" target-y="646"/><path d="M 362.91 654.20 L 346.34 645.00 C 346.34 645.00 344.80 646.43 344.18 647.11 C 342.95 647.99 341.86 648.84 341.86 648.84 C 341.86 648.84 337.68 651.26 335.36 655.20 C 332.58 659.92 332.71 676.00 332.71 676.00 C 332.71 676.00 333.18 688.02 332.33 700.58 C 330.86 722.28 330.20 747.97 330.20 747.97 C 330.20 747.97 347.42 748.90 360.41 748.99 C 374.08 749.09 387.20 748.23 387.20 748.23 L 378.88 671.46 C 378.88 671.46 377.62 658.35 372.82 650.66 C 370.71 647.27 365.34 645.86 365.34 645.86 L 362.91 654.20 Z" fill="url(#linearGradient-20)" fill-rule="nonzero" group-id="5,18" id="衣服" node-id="132" stroke="none" target-height="104.08923" target-width="57" target-x="330.19946" target-y="645"/><path d="M 340.78 649.00 C 340.78 649.00 333.09 653.93 330.47 658.48 C 326.52 665.36 324.74 696.41 324.74 696.41 C 324.74 696.41 324.07 701.68 326.65 705.90 C 329.41 710.40 354.54 725.62 354.54 725.62 L 375.16 737.00 L 381.66 722.59 L 346.52 696.79 C 346.52 696.79 344.90 695.52 344.60 693.76 C 344.33 692.11 347.66 672.90 347.66 672.90 C 347.66 672.90 349.01 665.22 346.90 659.62 C 345.02 654.63 340.78 649.00 340.78 649.00 Z" fill="url(#linearGradient-21)" fill-rule="nonzero" group-id="5,18" id="胳膊-2" node-id="133" stroke="none" target-height="88" target-width="57.594055" target-x="324.0669" target-y="649"/><path d="M 425.15 704.00 L 386.08 704.00 C 385.58 704.00 385.10 704.20 384.74 704.54 C 384.39 704.89 384.19 705.37 384.19 705.86 L 383.05 731.14 C 383.05 731.63 383.25 732.11 383.61 732.46 C 383.96 732.80 384.44 733.00 384.95 733.00 L 422.50 733.00 C 423.00 733.00 423.49 732.80 423.84 732.46 C 424.20 732.11 424.40 731.63 424.40 731.14 L 427.05 705.86 C 427.05 705.37 426.85 704.89 426.50 704.54 C 426.14 704.20 425.66 704.00 425.15 704.00 L 425.15 704.00 Z" fill="#483029" fill-rule="evenodd" group-id="5,18" id="iPad" node-id="134" stroke="none" target-height="29" target-width="44" target-x="383.0503" target-y="704"/><path d="M 381.43 723.00 L 392.43 723.36 C 392.43 723.36 393.42 723.31 393.46 725.14 C 393.44 725.60 393.18 726.02 392.77 726.21 L 390.03 727.29 C 391.38 727.66 392.75 727.89 394.14 728.00 C 395.97 728.10 397.79 728.10 399.62 728.00 C 399.62 728.00 400.81 727.87 400.65 729.78 C 400.47 731.80 399.96 734.78 399.96 734.78 C 399.96 734.78 399.73 736.82 397.22 737.28 C 394.00 737.88 386.27 738.00 386.27 738.00 C 384.32 738.02 382.38 737.90 380.45 737.64 C 378.87 737.39 375.66 736.21 375.66 736.21 C 375.66 736.21 377.04 732.65 378.38 729.22 C 379.24 727.07 380.26 724.99 381.43 723.00 Z M 424.51 723.55 L 415.16 723.00 C 415.16 723.00 414.33 722.88 414.17 724.55 C 414.14 724.95 414.33 725.34 414.67 725.58 L 416.92 726.77 C 415.76 727.00 414.57 727.11 413.39 727.09 C 411.83 727.04 410.28 726.90 408.74 726.66 C 408.74 726.66 407.74 726.45 407.75 728.20 C 407.75 730.05 407.98 732.81 407.98 732.81 C 408.08 734.00 408.94 735.00 410.12 735.30 C 412.81 736.10 419.36 736.82 419.36 736.82 C 421.00 737.00 422.66 737.04 424.32 736.96 C 424.92 736.91 425.73 737.04 426.30 736.66 C 426.79 736.26 427.18 735.76 427.42 735.18 C 427.87 732.89 427.86 730.53 427.38 728.25 C 427.15 727.19 426.85 726.14 426.47 725.12 C 426.20 724.25 425.43 723.63 424.51 723.55 L 424.51 723.55 Z" fill="#fee0bc" fill-rule="evenodd" group-id="5,18" id="手" node-id="135" stroke="none" target-height="15.141602" target-width="52.20868" target-x="375.66125" target-y="722.88116"/></g></g><g node-id="369"><path d="M 886.00 873.50 C 886.00 875.43 880.85 877.00 874.50 877.00 C 868.15 877.00 863.00 875.43 863.00 873.50 C 863.00 871.57 868.15 870.00 874.50 870.00 C 880.85 870.00 886.00 871.57 886.00 873.50 Z" fill="#825852" fill-rule="evenodd" group-id="6" id="椭圆形" node-id="137" stroke="none" target-height="7" target-width="23" target-x="863" target-y="870"/><path d="M 862.00 871.79 C 863.57 845.10 870.14 829.66 881.72 825.46 C 886.27 824.84 891.35 823.90 887.81 829.92 C 884.27 835.93 874.79 833.59 865.30 871.77 C 864.45 873.40 863.34 873.41 862.00 871.79 Z" fill="url(#linearGradient-22)" fill-rule="evenodd" group-id="6" id="路径-42" node-id="138" stroke="none" target-height="49.50586" target-width="29.354431" target-x="862" target-y="823.9035"/><path d="M 861.74 871.12 C 858.65 846.42 856.11 830.88 854.14 824.51 C 851.18 814.96 844.87 796.58 857.99 803.54 C 871.11 810.49 872.66 846.16 866.60 867.87 C 864.71 873.36 863.09 874.44 861.74 871.12 Z" fill="url(#linearGradient-23)" fill-rule="evenodd" group-id="6" id="路径-41" node-id="139" stroke="none" target-height="77.863525" target-width="27.786987" target-x="844.8725" target-y="796.58105"/></g><g node-id="370"><path d="M 187.00 800.00 C 213.18 808.25 234.27 819.37 247.73 845.37 C 267.27 822.56 289.46 823.68 310.00 824.20 C 278.18 829.87 264.17 852.14 267.99 891.00 C 265.03 890.80 261.53 890.66 257.51 890.59 C 249.48 891.04 240.33 891.12 230.06 890.82 C 228.10 890.87 226.08 890.93 224.00 891.00 C 224.04 890.87 224.09 890.74 224.13 890.61 C 222.34 890.54 220.52 890.45 218.66 890.36 L 218.74 889.99 C 212.47 890.03 205.57 889.95 198.04 889.76 C 203.37 849.34 189.69 827.56 157.00 824.43 C 185.88 821.69 208.39 832.14 220.66 851.62 C 217.57 829.89 206.35 812.68 187.00 800.00 Z" fill="url(#linearGradient-24)" fill-rule="evenodd" group-id="7" id="形状结合" node-id="141" stroke="none" target-height="91.12164" target-width="153" target-x="157" target-y="800"/><path d="M 268.00 913.00 C 268.00 924.60 236.66 934.00 198.00 934.00 C 159.34 934.00 128.00 924.60 128.00 913.00 C 128.00 901.40 159.34 892.00 198.00 892.00 C 236.66 892.00 268.00 901.40 268.00 913.00 Z" fill="#825852" fill-rule="evenodd" group-id="7" id="椭圆形" node-id="142" stroke="none" target-height="42" target-width="140" target-x="128" target-y="892"/><path d="M 178.16 916.00 C 208.81 916.00 232.00 916.74 232.00 888.02 C 232.00 859.29 207.15 836.00 176.50 836.00 C 145.85 836.00 121.00 859.29 121.00 888.02 C 121.00 916.74 147.51 916.00 178.16 916.00 Z" fill="url(#linearGradient-25)" fill-rule="evenodd" group-id="7" id="椭圆形" node-id="143" stroke="none" target-height="80.743225" target-width="111" target-x="121" target-y="836"/><path d="M 238.53 916.00 C 257.59 916.00 272.00 916.46 272.00 898.86 C 272.00 881.26 256.55 867.00 237.50 867.00 C 218.45 867.00 203.00 881.26 203.00 898.86 C 203.00 916.46 219.48 916.00 238.53 916.00 Z" fill="url(#linearGradient-26)" fill-rule="evenodd" group-id="7" id="椭圆形备份-6" node-id="144" stroke="none" target-height="49.4552" target-width="69" target-x="203" target-y="867"/></g><g node-id="371"><path d="M 380.98 442.00 C 389.54 442.45 392.46 444.00 387.77 448.05 C 387.30 448.46 386.78 448.92 386.25 449.39 L 385.92 449.67 C 385.49 450.06 385.05 450.46 384.62 450.86 L 384.29 451.16 C 380.72 454.53 377.67 458.27 382.16 459.28 C 382.26 459.35 382.37 459.42 382.49 459.49 L 382.62 459.56 L 382.74 459.64 C 382.79 459.66 382.83 459.69 382.87 459.71 L 383.07 459.83 C 383.23 459.93 383.38 460.03 383.53 460.14 L 383.64 460.22 C 383.66 460.23 383.68 460.25 383.69 460.26 L 383.80 460.35 C 384.97 461.38 384.90 463.03 377.00 466.66 C 379.20 467.13 381.39 467.71 383.57 468.38 C 388.77 471.29 397.01 475.93 402.00 477.82 C 398.80 479.69 395.86 482.07 393.17 484.97 L 398.43 484.97 C 364.39 502.34 340.40 502.34 326.48 484.97 C 326.39 484.55 326.31 484.11 326.25 483.65 C 324.00 484.52 321.56 485.00 319.00 485.00 C 310.79 485.00 303.73 480.05 300.65 472.97 C 296.96 473.17 291.25 472.44 288.00 470.44 C 288.59 468.98 289.56 467.83 290.91 467.00 L 288.00 464.96 C 291.03 461.83 294.82 460.56 299.37 461.14 C 301.17 451.94 309.28 445.00 319.00 445.00 C 330.05 445.00 339.00 453.95 339.00 465.00 C 339.00 466.11 338.91 467.20 338.73 468.27 C 341.70 467.42 344.64 466.74 347.56 466.23 C 353.81 452.29 364.95 444.21 380.98 442.00 Z" fill="#825852" fill-rule="evenodd" group-id="8" id="形状结合" node-id="146" stroke="none" target-height="60.343536" target-width="114" target-x="288" target-y="442"/><path d="M 323.00 463.00 C 323.00 466.87 319.64 470.00 315.50 470.00 C 311.36 470.00 308.00 466.87 308.00 463.00 C 308.00 459.13 311.36 456.00 315.50 456.00 C 319.64 456.00 323.00 459.13 323.00 463.00 Z" fill="#ffffff" fill-rule="evenodd" group-id="8" id="椭圆形" node-id="147" stroke="none" target-height="14" target-width="15" target-x="308" target-y="456"/><path d="M 319.00 463.50 C 319.00 465.43 317.43 467.00 315.50 467.00 C 313.57 467.00 312.00 465.43 312.00 463.50 C 312.00 461.57 313.57 460.00 315.50 460.00 C 317.43 460.00 319.00 461.57 319.00 463.50 Z" fill="#825852" fill-rule="evenodd" group-id="8" id="椭圆形" node-id="148" stroke="none" target-height="7" target-width="7" target-x="312" target-y="460"/><path d="M 439.00 476.50 C 439.00 480.64 435.64 484.00 431.50 484.00 C 427.36 484.00 424.00 480.64 424.00 476.50 C 424.00 472.36 427.36 469.00 431.50 469.00 C 435.64 469.00 439.00 472.36 439.00 476.50 Z" fill="#825852" fill-rule="evenodd" group-id="8" id="椭圆形" node-id="149" stroke="none" target-height="15" target-width="15" target-x="424" target-y="469"/><path d="M 476.00 476.50 C 476.00 480.64 472.64 484.00 468.50 484.00 C 464.36 484.00 461.00 480.64 461.00 476.50 C 461.00 472.36 464.36 469.00 468.50 469.00 C 472.64 469.00 476.00 472.36 476.00 476.50 Z" fill="#825852" fill-rule="evenodd" group-id="8" id="椭圆形备份" node-id="150" stroke="none" target-height="15" target-width="15" target-x="461" target-y="469"/><path d="M 512.00 476.50 C 512.00 480.64 508.64 484.00 504.50 484.00 C 500.36 484.00 497.00 480.64 497.00 476.50 C 497.00 472.36 500.36 469.00 504.50 469.00 C 508.64 469.00 512.00 472.36 512.00 476.50 Z" fill="#825852" fill-rule="evenodd" group-id="8" id="椭圆形备份-2" node-id="151" stroke="none" target-height="15" target-width="15" target-x="497" target-y="469"/></g></svg>