<svg height="1024" node-id="1" sillyvg="true" template-height="1024" template-width="1024" version="1.1" viewBox="0 0 1024 1024" width="1024" xmlns="http://www.w3.org/2000/svg" xmlns:xlink="http://www.w3.org/1999/xlink"><defs node-id="74"></defs><path d="M 742.80 202.60 L 748.90 175.50 L 764.50 179.00 C 766.80 174.50 769.70 170.30 773.10 166.60 L 764.50 153.00 L 788.00 138.10 L 796.30 151.20 C 801.90 149.20 807.70 148.20 813.60 148.00 L 817.20 132.00 L 844.30 138.10 L 840.70 154.10 C 845.60 156.60 850.10 159.80 854.00 163.60 L 866.40 155.80 L 881.20 179.30 L 868.80 187.10 C 870.50 192.30 871.40 197.70 871.60 203.20 L 887.20 206.70 L 881.10 233.80 L 865.50 230.30 C 862.80 235.60 859.30 240.40 855.20 244.50 L 863.50 257.60 L 840.00 272.40 L 831.40 258.80 C 826.60 260.30 821.50 261.10 816.50 261.20 L 812.90 277.20 L 785.80 271.10 L 789.40 255.10 C 784.50 252.60 780.10 249.40 776.10 245.70 L 761.70 254.80 L 746.80 231.30 L 761.20 222.20 C 759.50 217.00 758.60 211.60 758.40 206.10 L 742.80 202.60 Z M 807.80 229.00 C 839.80 238.30 854.00 189.90 822.20 180.30 C 790.20 171.10 776.00 219.40 807.80 229.00 L 807.80 229.00 Z" fill="#8a9edd" fill-rule="nonzero" node-id="76" stroke="none" target-height="145.20001" target-width="144.40002" target-x="742.8" target-y="132"/><path d="M 856.60 324.50 L 858.10 317.80 L 864.00 319.10 C 865.40 314.60 867.70 310.30 870.60 306.60 L 866.10 302.50 L 870.80 297.40 L 875.30 301.50 C 878.80 298.30 882.90 295.70 887.30 293.90 L 885.50 288.10 L 892.10 286.10 L 893.90 291.90 C 898.60 290.90 903.30 290.70 908.10 291.40 L 909.40 285.50 L 916.10 287.00 L 914.80 292.90 C 919.30 294.30 923.60 296.60 927.30 299.50 L 931.40 295.00 L 936.40 299.70 L 932.30 304.20 C 935.50 307.70 938.10 311.80 939.90 316.20 L 945.70 314.40 L 947.70 321.00 L 941.90 322.80 C 942.90 327.50 943.10 332.30 942.40 337.00 L 948.30 338.30 L 946.80 344.90 L 940.90 343.60 C 939.50 348.10 937.20 352.40 934.30 356.10 L 938.80 360.20 L 934.10 365.30 L 929.60 361.20 C 926.10 364.40 922.00 367.00 917.60 368.80 L 919.40 374.60 L 912.80 376.60 L 911.00 370.80 C 906.30 371.80 901.60 372.00 896.80 371.30 L 895.50 377.20 L 888.80 375.70 L 890.10 369.80 C 885.60 368.40 881.30 366.10 877.60 363.20 L 873.50 367.70 L 868.50 363.00 L 872.60 358.50 C 869.40 355.00 866.80 350.90 865.00 346.50 L 859.20 348.30 L 857.20 341.70 L 863.00 339.90 C 862.00 335.30 861.80 330.50 862.50 325.70 L 856.60 324.50 Z M 896.70 357.00 C 930.50 364.00 941.80 314.00 908.30 305.80 C 874.50 298.80 863.20 348.80 896.70 357.00 Z" fill="#667ecc" fill-rule="nonzero" node-id="78" stroke="none" target-height="91.70001" target-width="91.70007" target-x="856.6" target-y="285.5"/><path d="M 663.00 181.00 L 665.30 170.80 L 673.10 172.60 C 673.70 171.10 674.50 169.60 675.40 168.30 L 669.50 162.90 L 676.60 155.30 L 682.50 160.70 C 683.80 159.70 685.20 158.80 686.60 158.10 L 684.20 150.50 L 694.20 147.40 L 696.60 155.00 C 698.20 154.80 699.90 154.70 701.50 154.80 L 703.30 147.00 L 713.50 149.30 L 711.70 157.10 C 713.20 157.70 714.70 158.50 716.00 159.40 L 721.40 153.50 L 729.10 160.60 L 723.70 166.50 C 724.70 167.80 725.60 169.20 726.30 170.60 L 733.90 168.20 L 737.00 178.10 L 729.40 180.50 C 729.60 182.10 729.70 183.80 729.60 185.40 L 737.40 187.20 L 735.10 197.40 L 727.30 195.60 C 726.70 197.10 725.90 198.60 725.00 199.90 L 730.80 205.30 L 723.70 213.00 L 717.80 207.60 C 716.50 208.60 715.10 209.50 713.60 210.20 L 716.00 217.80 L 706.00 220.90 L 703.60 213.30 C 702.00 213.50 700.30 213.60 698.70 213.50 L 696.90 221.30 L 686.70 219.00 L 688.50 211.20 C 687.00 210.60 685.50 209.80 684.20 208.90 L 678.80 214.80 L 671.10 207.70 L 676.50 201.80 C 675.50 200.50 674.60 199.10 673.90 197.70 L 666.30 200.00 L 663.20 190.10 L 670.80 187.70 C 670.60 186.10 670.50 184.40 670.60 182.80 L 663.00 181.00 Z M 696.90 198.40 C 715.80 202.30 722.10 174.30 703.40 169.70 C 684.50 165.80 678.20 193.80 696.90 198.40 L 696.90 198.40 Z" fill="#ffb31a" fill-rule="nonzero" node-id="80" stroke="none" target-height="74.3" target-width="74.400024" target-x="663" target-y="147"/><path d="M 336.60 98.80 L 456.90 98.80 C 465.20 98.80 472.00 105.60 472.00 113.90 L 472.00 164.00 C 472.00 172.30 465.20 179.10 456.90 179.10 L 336.60 179.10 C 328.30 179.10 321.50 172.30 321.50 164.00 L 321.50 113.80 C 321.60 105.50 328.30 98.80 336.60 98.80 Z" fill="#7689d6" fill-rule="nonzero" node-id="82" stroke="none" target-height="80.29999" target-width="150.5" target-x="321.5" target-y="98.8"/><path d="M 472.00 164.00 C 472.00 172.30 465.20 179.10 456.90 179.10 L 450.70 179.10 L 450.70 200.60 L 421.60 179.10 L 336.50 179.10 C 328.20 179.10 321.40 172.40 321.40 164.00 L 321.40 113.80 C 378.40 170.60 472.00 164.00 472.00 164.00 Z" fill="#677cc1" fill-rule="nonzero" node-id="84" stroke="none" target-height="86.799995" target-width="150.6" target-x="321.4" target-y="113.80001"/><path d="M 376.70 123.30 L 456.80 123.30 C 459.10 123.30 461.00 121.40 461.00 119.10 C 461.00 116.80 459.10 114.90 456.80 114.90 L 376.70 114.90 C 371.20 114.90 371.20 123.20 376.70 123.30 Z" fill="#ffffff" fill-rule="nonzero" node-id="86" stroke="none" target-height="8.400002" target-width="89.79999" target-x="371.2" target-y="114.9"/><path d="M 424.50 143.10 L 456.80 143.10 C 462.30 143.10 462.30 134.80 456.80 134.70 L 424.50 134.70 C 419.00 134.80 419.00 143.10 424.50 143.10 Z" fill="#ffffff" fill-rule="nonzero" node-id="88" stroke="none" target-height="8.400009" target-width="43.299988" target-x="419" target-y="134.7"/><path d="M 336.80 143.10 L 405.00 143.10 C 407.30 143.10 409.20 141.20 409.20 138.90 C 409.20 136.60 407.30 134.70 405.00 134.70 L 405.00 134.70 L 336.80 134.70 C 331.40 134.80 331.30 143.10 336.80 143.10 Z" fill="#ffffff" fill-rule="nonzero" node-id="90" stroke="none" target-height="8.400009" target-width="77.900024" target-x="331.3" target-y="134.7"/><path d="M 390.70 162.90 L 456.80 162.90 C 462.20 162.90 462.30 154.60 456.80 154.50 L 390.70 154.50 C 385.30 154.60 385.20 162.90 390.70 162.90 Z" fill="#ffffff" fill-rule="nonzero" node-id="92" stroke="none" target-height="8.399994" target-width="77.099976" target-x="385.2" target-y="154.5"/><path d="M 343.70 98.80 C 445.10 98.80 468.70 115.70 472.00 118.70 C 473.20 108.70 467.90 98.90 456.90 98.80 L 343.70 98.80 Z" fill="#8a9edd" fill-rule="nonzero" node-id="94" stroke="none" target-height="19.900002" target-width="129.49997" target-x="343.70004" target-y="98.8"/><path d="M 757.80 881.60 C 757.80 881.60 884.70 326.60 618.00 290.30 C 245.60 239.60 326.40 526.50 326.40 526.50 C 326.40 526.50 229.00 468.80 136.70 531.10 C 8.60 617.40 213.00 881.10 213.00 881.10 L 757.80 881.60 Z" fill="#f0f8ff" fill-rule="nonzero" node-id="96" stroke="none" target-height="641.9999" target-width="876.10004" target-x="8.6" target-y="239.6"/><path d="M 757.80 881.60 C 757.80 881.60 1045.90 644.70 976.00 551.60 C 894.90 443.50 760.60 551.60 760.60 551.60 L 757.80 881.60 Z" fill="#f0f8ff" fill-rule="nonzero" node-id="98" stroke="none" target-height="438.0999" target-width="288.10004" target-x="757.8" target-y="443.5"/><path d="M 812.10 868.00 C 812.10 868.00 946.80 728.20 903.30 675.20 C 894.70 665.00 880.30 661.90 868.30 667.60 C 852.10 675.50 829.20 697.60 812.10 757.90 C 812.10 757.90 887.90 596.30 829.20 587.00 C 829.20 587.00 767.50 569.50 758.30 731.70 C 758.30 731.70 765.60 616.10 714.30 609.10 C 714.30 609.10 599.40 574.60 704.50 870.90 L 812.10 868.00 Z" fill="#47b0aa" fill-rule="nonzero" node-id="100" stroke="none" target-height="301.40002" target-width="347.39996" target-x="599.4" target-y="569.5"/><path d="M 791.00 869.50 C 791.00 869.50 867.70 789.90 827.60 770.90 C 827.60 770.90 805.20 766.50 791.00 816.40 C 791.00 816.40 827.60 738.50 799.20 734.00 C 799.20 734.00 772.10 713.00 765.00 803.80 C 765.00 803.80 768.50 748.00 743.80 744.70 C 743.80 744.70 688.40 728.10 739.10 870.90 L 791.00 869.50 Z" fill="#59d1ba" fill-rule="nonzero" node-id="102" stroke="none" target-height="157.90002" target-width="179.29993" target-x="688.4001" target-y="713"/><path d="M 65.60 873.90 C 65.60 886.30 265.50 896.30 512.00 896.30 C 758.50 896.30 958.40 886.30 958.40 873.90 C 958.40 861.50 758.60 851.50 512.00 851.50 C 265.40 851.50 65.60 861.50 65.60 873.90 Z" fill="#d7e4f9" fill-rule="nonzero" node-id="104" stroke="none" target-height="44.799988" target-width="892.80005" target-x="65.6" target-y="851.5"/><path d="M 300.60 828.80 C 300.70 848.00 316.40 863.60 335.60 863.50 L 721.00 863.50 C 740.30 863.60 755.90 848.00 756.00 828.80 L 756.00 299.20 C 755.90 280.00 740.20 264.40 721.00 264.50 L 335.70 264.50 C 316.50 264.40 300.80 280.00 300.70 299.20 L 300.60 828.80 Z" fill="#83abdb" fill-rule="nonzero" node-id="106" stroke="none" target-height="599.19995" target-width="455.4" target-x="300.6" target-y="264.4"/><path d="M 282.20 828.80 C 282.30 848.00 298.00 863.60 317.20 863.50 L 702.50 863.50 C 721.80 863.60 737.40 848.00 737.50 828.80 C 737.50 828.80 737.50 828.80 737.50 828.80 L 737.50 299.20 C 737.40 280.00 721.70 264.40 702.50 264.50 C 702.50 264.50 702.50 264.50 702.50 264.50 L 317.30 264.50 C 298.10 264.40 282.40 280.00 282.30 299.20 L 282.20 828.80 Z" fill="#b3d0ff" fill-rule="nonzero" node-id="108" stroke="none" target-height="599.19995" target-width="455.30005" target-x="282.2" target-y="264.4"/><path d="M 322.10 751.80 C 322.10 770.40 337.20 785.50 355.80 785.60 L 646.40 785.60 C 665.00 785.60 680.10 770.50 680.10 751.80 L 680.10 751.80 L 680.10 351.70 C 680.10 333.10 665.00 318.00 646.40 318.00 L 355.80 318.00 C 337.20 318.00 322.10 333.10 322.10 351.80 L 322.10 751.80 Z" fill="#ebf3ff" fill-rule="nonzero" node-id="110" stroke="none" target-height="467.5999" target-width="357.99997" target-x="322.1" target-y="318"/><path d="M 431.20 291.80 C 431.20 294.40 433.30 296.40 435.90 296.40 L 601.70 296.40 C 604.30 296.40 606.30 294.30 606.30 291.80 C 606.30 291.80 606.30 291.80 606.30 291.80 L 606.30 291.80 C 606.30 289.30 604.20 287.20 601.70 287.20 C 601.70 287.20 601.70 287.20 601.70 287.20 L 435.90 287.20 C 433.30 287.20 431.20 289.30 431.20 291.80 C 431.20 291.80 431.20 291.80 431.20 291.80 Z" fill="#83abdb" fill-rule="nonzero" node-id="112" stroke="none" target-height="9.199982" target-width="175.09998" target-x="431.2" target-y="287.2"/><path d="M 493.00 833.10 L 518.00 833.10 C 523.90 833.10 528.70 828.30 528.70 822.40 L 528.70 822.40 C 528.70 816.50 523.90 811.70 518.00 811.70 L 493.00 811.70 C 487.10 811.70 482.30 816.50 482.30 822.40 L 482.30 822.40 C 482.40 828.30 487.20 833.00 493.00 833.10 Z" fill="#83abdb" fill-rule="nonzero" node-id="114" stroke="none" target-height="21.399963" target-width="46.400024" target-x="482.3" target-y="811.69995"/><path d="M 235.00 252.60 L 266.10 293.20 L 259.50 246.00 Z" fill="#d6e6f2" fill-rule="nonzero" node-id="116" stroke="none" target-height="47.200012" target-width="31.100006" target-x="235" target-y="246"/><path d="M 124.30 255.50 L 257.40 255.50 C 270.30 255.50 281.20 246.00 282.90 233.20 L 288.40 192.10 C 290.30 178.00 280.40 165.10 266.30 163.20 C 265.20 163.10 264.00 163.00 262.90 163.00 L 118.90 163.00 C 104.70 163.00 93.20 174.50 93.20 188.70 C 93.20 189.80 93.30 191.00 93.40 192.10 L 98.90 233.20 C 100.50 246.00 111.40 255.50 124.30 255.50 Z" fill="#d6e6f2" fill-rule="nonzero" node-id="118" stroke="none" target-height="92.5" target-width="197.09999" target-x="93.2" target-y="163"/><path d="M 211.40 209.30 C 211.40 214.20 215.40 218.20 220.30 218.20 C 225.20 218.20 229.20 214.20 229.20 209.30 C 229.20 204.40 225.20 200.40 220.30 200.40 C 215.40 200.40 211.40 204.40 211.40 209.30 C 211.40 209.30 211.40 209.30 211.40 209.30 Z" fill="#f0f8ff" fill-rule="nonzero" node-id="120" stroke="none" target-height="17.800003" target-width="17.800003" target-x="211.4" target-y="200.4"/><path d="M 199.70 209.30 C 199.70 214.22 195.72 218.20 190.80 218.20 C 185.88 218.20 181.90 214.22 181.90 209.30 C 181.90 204.38 185.88 200.40 190.80 200.40 C 195.72 200.40 199.70 204.38 199.70 209.30 Z" fill="#f0f8ff" fill-rule="nonzero" node-id="122" stroke="none" target-height="17.799988" target-width="17.799988" target-x="181.9" target-y="200.40001"/><path d="M 152.40 209.30 C 152.40 214.20 156.40 218.20 161.30 218.20 C 166.20 218.20 170.20 214.20 170.20 209.30 C 170.20 204.40 166.20 200.40 161.30 200.40 C 156.40 200.40 152.40 204.40 152.40 209.30 C 152.40 209.30 152.40 209.30 152.40 209.30 Z" fill="#f0f8ff" fill-rule="nonzero" node-id="124" stroke="none" target-height="17.800003" target-width="17.800003" target-x="152.4" target-y="200.4"/><path d="M 738.90 464.60 C 738.90 401.10 689.70 340.30 629.00 340.30 C 598.10 340.30 570.20 353.60 550.30 375.00 C 532.00 368.20 512.70 364.70 493.20 364.70 C 399.30 364.70 323.10 453.70 323.10 552.00 C 323.10 650.30 399.20 729.80 493.20 729.80 C 579.90 729.80 651.50 662.00 662.00 574.30 C 706.60 559.60 738.90 516.00 738.90 464.60 Z" fill="#d7e7ff" fill-rule="nonzero" node-id="126" stroke="none" target-height="389.5" target-width="415.80002" target-x="323.1" target-y="340.3"/><path d="M 483.50 575.40 L 483.50 661.60 C 483.50 664.40 484.00 667.20 485.10 669.80 L 562.40 669.80 C 563.50 667.20 564.00 664.40 564.00 661.60 L 564.00 575.40 C 564.00 564.50 556.00 555.60 546.20 555.60 L 501.20 555.60 C 491.50 555.60 483.50 564.50 483.50 575.40 Z" fill="#4f69b2" fill-rule="nonzero" node-id="128" stroke="none" target-height="114.20001" target-width="80.5" target-x="483.5" target-y="555.6"/><path d="M 408.80 659.90 C 413.10 659.90 417.00 657.60 419.10 653.90 L 478.70 551.00 C 482.00 545.30 480.10 538.00 474.40 534.70 C 468.70 531.40 461.40 533.30 458.10 539.00 L 398.50 642.00 C 395.20 647.70 397.20 655.00 402.90 658.30 C 404.60 659.30 406.70 659.90 408.80 659.90 L 408.80 659.90 Z" fill="#f8fdff" fill-rule="nonzero" node-id="130" stroke="none" target-height="128.5" target-width="86.79999" target-x="395.2" target-y="531.4"/><path d="M 450.00 545.00 C 450.10 569.00 486.70 569.00 486.80 545.00 C 486.60 521.00 450.10 521.00 450.00 545.00 Z" fill="#1d3f70" fill-rule="nonzero" node-id="132" stroke="none" target-height="48" target-width="36.799988" target-x="450" target-y="521"/><path d="M 521.60 396.90 L 526.00 396.90 L 526.00 423.50 L 521.60 423.50 Z" fill="#f8fdff" fill-rule="nonzero" node-id="134" stroke="none" target-height="26.599976" target-width="4.4000244" target-x="521.6" target-y="396.9"/><path d="M 535.10 426.10 C 534.90 423.50 536.10 417.70 531.90 417.80 L 515.50 417.80 C 513.80 417.80 512.30 419.20 512.30 421.00 C 512.50 423.60 511.30 429.40 515.50 429.30 L 532.00 429.30 C 533.70 429.20 535.10 427.80 535.10 426.10 Z" fill="#4f69b2" fill-rule="nonzero" node-id="136" stroke="none" target-height="11.699982" target-width="24.799988" target-x="511.3" target-y="417.7"/><path d="M 579.10 491.70 C 582.50 491.60 589.70 492.90 589.60 487.50 L 589.60 464.40 C 589.70 459.00 582.50 460.30 579.10 460.20 C 576.80 460.20 574.90 462.10 574.90 464.40 L 574.90 487.50 C 574.80 489.80 576.70 491.70 579.10 491.70 Z" fill="#4f69b2" fill-rule="nonzero" node-id="138" stroke="none" target-height="33.899994" target-width="14.900024" target-x="574.8" target-y="459"/><path d="M 462.20 491.70 C 465.60 491.60 472.80 492.90 472.70 487.50 L 472.70 464.40 C 472.80 459.00 465.60 460.30 462.20 460.20 C 459.90 460.20 458.00 462.10 458.00 464.40 L 458.00 487.50 C 458.00 489.80 459.90 491.70 462.20 491.70 Z" fill="#4f69b2" fill-rule="nonzero" node-id="140" stroke="none" target-height="33.899994" target-width="14.799957" target-x="458" target-y="459"/><path d="M 541.10 436.20 C 540.90 432.20 542.70 423.50 536.30 423.60 L 511.40 423.60 C 505.00 423.50 506.80 432.30 506.60 436.20 C 506.60 438.90 508.80 441.00 511.40 441.00 L 536.30 441.00 C 538.90 441.00 541.10 438.80 541.10 436.20 Z" fill="#f8fdff" fill-rule="nonzero" node-id="142" stroke="none" target-height="17.50003" target-width="37.700012" target-x="505" target-y="423.49997"/><path d="M 527.70 502.30 C 523.70 502.50 515.00 500.70 515.10 507.10 L 515.10 532.00 C 515.00 538.40 523.80 536.60 527.70 536.80 C 530.40 536.80 532.50 534.60 532.50 532.00 L 532.50 507.10 C 532.50 504.40 530.30 502.30 527.70 502.30 Z" fill="#4f69b2" fill-rule="nonzero" node-id="144" stroke="none" target-height="37.700043" target-width="17.5" target-x="515" target-y="500.69998"/><path d="M 490.30 519.50 L 557.30 519.50 C 571.00 519.50 582.20 508.30 582.20 494.60 C 581.10 473.30 590.10 433.00 557.30 432.30 L 490.30 432.30 C 476.60 432.30 465.40 443.50 465.40 457.20 C 466.50 478.50 457.40 518.90 490.30 519.50 Z" fill="#f8fdff" fill-rule="nonzero" node-id="146" stroke="none" target-height="87.20001" target-width="132.69998" target-x="457.4" target-y="432.3"/><path d="M 496.70 505.00 L 550.80 505.00 C 560.00 505.00 567.40 497.50 567.40 488.40 C 566.70 474.20 572.70 447.30 550.80 446.80 L 496.70 446.80 C 487.50 446.80 480.10 454.30 480.10 463.40 C 480.80 477.60 474.80 504.50 496.70 505.00 Z" fill="#1d3f70" fill-rule="nonzero" node-id="148" stroke="none" target-height="58.200012" target-width="97.899994" target-x="474.80002" target-y="446.8"/><path d="M 515.50 396.90 C 515.50 407.70 532.00 407.70 532.00 396.90 C 532.00 386.10 515.50 386.10 515.50 396.90 Z" fill="#4f69b2" fill-rule="nonzero" node-id="150" stroke="none" target-height="21.600037" target-width="16.5" target-x="515.5" target-y="386.1"/><path d="M 534.90 475.90 C 534.90 484.80 548.40 484.80 548.40 475.90 C 548.40 467.00 534.90 467.10 534.90 475.90 Z" fill="#ffde00" fill-rule="nonzero" node-id="152" stroke="none" target-height="17.799988" target-width="13.5" target-x="534.9" target-y="467"/><path d="M 499.10 475.90 C 499.10 484.80 512.60 484.80 512.60 475.90 C 512.60 467.00 499.20 467.10 499.10 475.90 Z" fill="#ffde00" fill-rule="nonzero" node-id="154" stroke="none" target-height="17.799988" target-width="13.4999695" target-x="499.1" target-y="467"/><path d="M 483.50 572.10 L 483.50 624.60 L 564.00 624.60 L 564.00 572.10 C 564.00 563.00 556.00 555.60 546.20 555.60 L 501.20 555.60 C 491.50 555.60 483.50 563.00 483.50 572.10 Z" fill="#1d3f70" fill-rule="nonzero" node-id="156" stroke="none" target-height="69" target-width="80.5" target-x="483.5" target-y="555.6"/><path d="M 458.00 571.80 L 458.00 571.80 C 458.00 549.60 476.00 531.50 498.30 531.50 L 549.30 531.50 C 571.50 531.50 589.60 549.50 589.60 571.80 L 589.60 571.80 C 589.60 594.00 571.60 612.10 549.30 612.10 L 498.30 612.10 C 476.00 612.10 458.00 594.00 458.00 571.80 Z" fill="#f8fdff" fill-rule="nonzero" node-id="158" stroke="none" target-height="80.599976" target-width="131.59998" target-x="458" target-y="531.5"/><path d="M 567.70 539.60 C 567.80 563.60 604.40 563.60 604.50 539.60 C 604.30 515.60 567.80 515.60 567.70 539.60 Z" fill="#1d3f70" fill-rule="nonzero" node-id="160" stroke="none" target-height="48" target-width="36.799988" target-x="567.7" target-y="515.6"/><path d="M 645.70 654.50 C 654.60 654.70 660.70 644.30 656.00 636.60 L 596.40 533.70 C 588.40 520.30 568.10 531.90 575.80 545.60 L 635.40 648.50 C 637.50 652.20 641.40 654.50 645.70 654.50 Z" fill="#f8fdff" fill-rule="nonzero" node-id="162" stroke="none" target-height="134.40002" target-width="92.60004" target-x="568.1" target-y="520.3"/><path d="M 627.30 642.60 C 627.40 666.60 664.00 666.60 664.10 642.60 C 663.90 618.50 627.40 618.50 627.30 642.60 Z" fill="#1d3f70" fill-rule="nonzero" node-id="164" stroke="none" target-height="48.099976" target-width="36.799988" target-x="627.3" target-y="618.5"/><path d="M 536.80 630.50 L 555.20 630.50 L 551.30 626.30 C 546.00 620.70 555.00 612.50 560.10 618.30 L 571.30 630.60 L 645.10 630.70 C 651.70 630.50 657.20 635.70 657.40 642.30 C 657.60 648.90 652.40 654.40 645.80 654.60 C 645.60 654.60 645.30 654.60 645.10 654.60 L 536.70 654.60 C 521.00 654.20 521.00 630.70 536.80 630.50 Z" fill="#f8fdff" fill-rule="nonzero" node-id="166" stroke="none" target-height="42.099976" target-width="136.59998" target-x="521" target-y="612.5"/><path d="M 320.90 647.80 L 454.90 647.80 L 428.20 549.50 L 295.00 549.50 Z" fill="#163260" fill-rule="nonzero" node-id="168" stroke="none" target-height="98.29999" target-width="159.9" target-x="295" target-y="549.5"/><path d="M 320.90 647.30 L 454.90 647.30 L 454.90 654.00 L 320.90 654.00 Z" fill="#234270" fill-rule="nonzero" node-id="170" stroke="none" target-height="6.700012" target-width="134" target-x="320.9" target-y="647.3"/><path d="M 426.20 549.50 L 431.00 549.50 L 457.10 647.30 L 520.80 647.30 L 520.80 654.00 L 452.70 654.00 L 452.70 648.00 Z" fill="#0b274f" fill-rule="nonzero" node-id="172" stroke="none" target-height="104.5" target-width="94.599976" target-x="426.2" target-y="549.5"/><path d="M 156.30 840.10 L 151.80 851.70 L 134.90 851.70 L 137.00 827.70 Z" fill="#fdc8aa" fill-rule="nonzero" node-id="174" stroke="none" target-height="24" target-width="21.40001" target-x="134.9" target-y="827.7"/><path d="M 205.60 840.10 L 210.10 860.60 L 227.00 860.60 L 224.90 836.50 Z" fill="#fdc8aa" fill-rule="nonzero" node-id="176" stroke="none" target-height="24.099976" target-width="21.399994" target-x="205.6" target-y="836.5"/><path d="M 198.30 661.70 L 229.50 844.00 L 203.20 844.00 L 157.70 661.70 Z" fill="#8896a8" fill-rule="nonzero" node-id="178" stroke="none" target-height="182.29999" target-width="71.8" target-x="157.7" target-y="661.7"/><path d="M 221.30 624.90 C 221.30 624.90 210.40 661.00 196.40 639.10 L 188.30 609.70 L 221.30 609.70 L 221.30 624.90 Z" fill="#fdc8aa" fill-rule="nonzero" node-id="180" stroke="none" target-height="51.299988" target-width="33" target-x="188.3" target-y="609.7"/><path d="M 204.30 626.40 C 203.40 627.40 202.70 628.60 202.10 629.80 C 201.70 631.00 200.20 620.90 200.20 620.90 L 204.30 626.40 Z" fill="#efa37d" fill-rule="nonzero" node-id="182" stroke="none" target-height="10.099976" target-width="4.1000214" target-x="200.19998" target-y="620.9"/><path d="M 149.40 655.70 L 132.40 835.10 L 159.00 844.00 L 195.90 660.30 Z" fill="#8896a8" fill-rule="nonzero" node-id="184" stroke="none" target-height="188.29999" target-width="63.499985" target-x="132.4" target-y="655.7"/><path d="M 188.30 696.80 L 191.60 797.60 L 178.70 745.80 Z" fill="#072542" fill-rule="nonzero" node-id="186" stroke="none" target-height="100.79999" target-width="12.900009" target-x="178.7" target-y="696.8"/><path d="M 125.80 622.50 L 149.60 622.50 L 147.80 656.60 L 152.00 656.50 L 162.70 665.00 L 200.20 663.80 C 200.20 663.80 203.50 593.00 171.30 589.70 L 147.80 582.30 C 147.80 582.20 123.00 586.90 125.80 622.50 Z" fill="#f24664" fill-rule="nonzero" node-id="188" stroke="none" target-height="82.79999" target-width="80.499985" target-x="123" target-y="582.2"/><path d="M 147.80 582.20 C 147.80 582.20 160.70 600.40 171.30 589.60 C 171.30 589.60 167.40 589.40 166.30 588.10 C 166.20 588.00 166.10 587.80 166.00 587.60 C 165.40 585.90 165.00 584.20 164.90 582.40 L 151.50 566.80 C 151.60 568.20 151.70 569.70 151.60 571.10 C 151.50 575.20 150.80 580.70 147.80 582.20 Z" fill="#fdc8aa" fill-rule="nonzero" node-id="190" stroke="none" target-height="33.600037" target-width="23.5" target-x="147.8" target-y="566.8"/><path d="M 152.30 557.10 C 152.30 557.10 150.30 555.20 149.10 556.30 C 147.90 557.40 149.50 561.90 150.40 562.40 C 151.30 562.90 149.90 558.90 150.10 558.50 C 150.30 558.10 150.80 556.60 152.30 557.10 Z" fill="#2ff434" fill-rule="nonzero" node-id="192" stroke="none" target-height="7.700012" target-width="4.400009" target-x="147.9" target-y="555.2"/><path d="M 177.20 626.40 L 225.00 626.40 L 239.90 575.60 L 192.10 575.60 L 181.00 613.60 Z" fill="#1f3a6f" fill-rule="nonzero" node-id="194" stroke="none" target-height="50.80005" target-width="62.69998" target-x="177.20001" target-y="575.6"/><path d="M 152.70 847.10 C 152.50 845.20 151.20 843.60 149.40 843.00 C 147.60 842.40 145.80 842.20 144.00 842.20 C 138.80 842.30 135.40 844.40 134.90 845.40 C 134.40 846.40 132.30 854.20 126.30 859.40 C 120.30 864.60 120.90 869.70 120.90 869.70 L 149.20 869.70 C 147.00 871.50 156.90 887.50 152.70 847.10 Z" fill="#1f3a6f" fill-rule="nonzero" node-id="196" stroke="none" target-height="45.299988" target-width="36.59999" target-x="120.3" target-y="842.2"/><path d="M 209.20 856.00 C 209.40 854.10 210.70 852.50 212.50 851.90 C 214.30 851.30 216.10 851.10 217.90 851.10 C 223.10 851.20 226.50 853.30 227.00 854.30 C 227.50 855.30 229.60 863.10 235.60 868.20 C 241.60 873.30 241.00 878.50 241.00 878.50 L 212.70 878.50 C 212.70 878.60 207.30 874.50 209.20 856.00 Z" fill="#1f3a6f" fill-rule="nonzero" node-id="198" stroke="none" target-height="27.5" target-width="34.30002" target-x="207.29999" target-y="851.1"/><path d="M 151.60 571.20 C 159.80 581.80 164.20 589.30 166.00 587.60 C 165.40 585.90 165.00 584.20 164.90 582.40 L 151.50 566.80 C 151.60 568.30 151.60 569.80 151.60 571.20 Z" fill="#efa37d" fill-rule="nonzero" node-id="200" stroke="none" target-height="22.5" target-width="14.5" target-x="151.5" target-y="566.8"/><path d="M 171.30 554.40 C 171.30 554.40 179.40 553.70 174.40 543.30 C 169.40 532.90 145.30 533.90 141.70 543.00 C 138.10 552.10 142.20 560.70 145.10 563.40 C 148.00 566.10 149.80 568.30 152.70 565.20 C 155.60 562.10 171.30 554.40 171.30 554.40 Z" fill="#1f3a6f" fill-rule="nonzero" node-id="202" stroke="none" target-height="35.399963" target-width="41.299988" target-x="138.1" target-y="532.9"/><path d="M 152.00 656.50 L 162.70 665.00 C 172.00 653.70 178.90 640.60 182.80 626.50 L 152.40 652.30 L 152.00 656.50 Z" fill="#f24664" fill-rule="nonzero" node-id="204" stroke="none" target-height="38.5" target-width="30.799988" target-x="152" target-y="626.5"/><path d="M 172.30 553.70 C 172.30 553.70 180.30 584.80 165.90 583.90 C 151.50 583.00 150.30 564.80 150.30 564.80 C 150.30 564.80 145.50 561.50 146.60 556.00 C 147.70 550.50 153.50 565.10 153.50 565.10 C 153.50 565.10 147.40 552.40 172.30 553.70 Z" fill="#fdc8aa" fill-rule="nonzero" node-id="206" stroke="none" target-height="34.299988" target-width="34.800003" target-x="145.5" target-y="550.5"/><path d="M 177.20 626.40 L 186.90 626.40 C 188.30 621.60 189.00 618.60 189.00 618.60 C 189.00 618.60 199.10 608.90 198.20 603.10 C 197.40 598.10 191.40 596.60 188.60 597.60 L 188.60 613.60 L 181.00 613.60 L 177.20 626.40 Z" fill="#072542" fill-rule="nonzero" node-id="208" stroke="none" target-height="29.800049" target-width="21.899994" target-x="177.20001" target-y="596.6"/><path d="M 127.40 622.50 C 127.40 622.50 133.60 664.00 150.50 660.30 C 167.40 656.60 187.90 615.10 187.90 615.10 C 187.90 615.10 199.30 607.00 199.20 601.10 C 199.10 595.20 191.30 592.90 189.30 594.90 C 187.30 596.90 185.60 601.70 185.40 602.00 C 185.50 601.70 187.30 595.00 183.70 595.80 C 180.10 596.60 182.90 604.20 181.10 607.40 C 179.50 610.20 160.70 622.20 152.30 634.20 L 151.70 631.10 L 150.00 622.60 L 127.40 622.50 Z" fill="#fdc8aa" fill-rule="nonzero" node-id="210" stroke="none" target-height="71.099976" target-width="71.899994" target-x="127.399994" target-y="592.9"/><path d="M 149.20 639.40 L 152.40 634.10 L 151.80 631.00 C 150.40 633.60 149.50 636.40 149.20 639.40 Z" fill="#efa37d" fill-rule="nonzero" node-id="212" stroke="none" target-height="8.400024" target-width="3.199997" target-x="149.2" target-y="631"/></svg>