<svg t="1776234032360" class="icon" viewBox="0 0 1024 1024" version="1.1" xmlns="http://www.w3.org/2000/svg" p-id="5530" width="200" height="200"><path d="M512 512m-512 0a512 512 0 1 0 1024 0 512 512 0 1 0-1024 0Z" fill="#FC8D2C" opacity=".15" p-id="5531"></path><path d="M355.537455 754.013091h-103.237819a51.607273 51.607273 0 0 1-39.563636-18.955636 63.813818 63.813818 0 0 1-14.743273-45.381819l17.745455-306.176a57.344 57.344 0 0 1 54.365091-56.541091h51.456a71.272727 71.272727 0 0 0-4.829091 22.039273l-19.618909 334.708364a69.410909 69.410909 0 0 0 16.058182 49.361454 57.297455 57.297455 0 0 0 42.368 20.945455z" fill="#FC8D2C" opacity=".5" p-id="5532"></path><path d="M742.853818 754.036364h-364.788363a55.412364 55.412364 0 0 1-24.308364-5.585455 60.194909 60.194909 0 0 1-19.502546-15.127273 66.501818 66.501818 0 0 1-12.567272-22.225454 70.516364 70.516364 0 0 1-3.490909-26.833455l19.595636-332.043636a67.886545 67.886545 0 0 1 18.850909-43.589818 57.239273 57.239273 0 0 1 41.064727-17.722182h325.504a57.239273 57.239273 0 0 1 41.076364 17.722182 67.886545 67.886545 0 0 1 18.850909 43.589818l19.642182 331.997091a70.516364 70.516364 0 0 1-3.490909 26.833454 66.490182 66.490182 0 0 1-12.578909 22.202182 60.194909 60.194909 0 0 1-19.502546 15.127273 55.400727 55.400727 0 0 1-24.354909 5.655273z m-293.655273-350.254546a29.800727 29.800727 0 0 0-28.392727 30.976 30.661818 30.661818 0 0 0 22.260364 30.254546c10.251636 60.299636 58.496 104.064 114.711273 104.064 57.995636 0 107.682909-47.255273 115.572363-109.917091a31.092364 31.092364 0 0 0 18.548364-29.021091 28.497455 28.497455 0 1 0-56.773818 0 31.418182 31.418182 0 0 0 16.290909 27.927273 106.298182 106.298182 0 0 1-31.813818 62.021818 93.300364 93.300364 0 0 1-28.276364 18.385454 87.435636 87.435636 0 0 1-66.443636 0.232728 93.090909 93.090909 0 0 1-27.927273-17.768728 106.077091 106.077091 0 0 1-32.325818-60.136727 31.662545 31.662545 0 0 0 12.962909-25.984 29.800727 29.800727 0 0 0-28.392728-31.034182z" fill="#FC8D2C" p-id="5533"></path></svg>